<svg viewBox="80 -70 550 550" xmlns="http://www.w3.org/2000/svg">
  <g>
    <path
       d="m586.25 341.25h-61.75l3.5352-19.109c4.7891 1.0312 9.6094 1.6094 14.465 1.6094 18.699 0 36.277-7.2812 49.488-20.512 13.23-13.211 20.512-30.789 20.512-49.488 0-34.695-25.68-63.684-59.012-69.012l6.3711-34.406c0.47266-2.5469-0.21094-5.1875-1.8711-7.1836-1.6797-1.9844-4.1406-3.1484-6.7383-3.1484h-393.75c-2.5977 0-5.0586 1.1641-6.7305 3.1484-1.6641 2.0039-2.3555 4.6367-1.8828 7.1836l35.363 190.92h-61.75c-4.8398 0-8.75 3.9102-8.75 8.75s3.9102 8.75 8.75 8.75h64.996l5.1523 27.844c0.76172 4.1445 4.3828 7.1562 8.6016 7.1562h306.25c1.1367 0 2.2031-0.24609 3.2109-0.64844 0.33984-0.14062 0.61328-0.35937 0.92578-0.53516 0.62109-0.33984 1.2266-0.69922 1.7344-1.1797 0.30469-0.28125 0.53516-0.61328 0.80469-0.92578 0.41016-0.50781 0.77734-1.0078 1.0781-1.6016 0.19141-0.40234 0.32422-0.82422 0.46484-1.25 0.12109-0.35156 0.31641-0.64844 0.38672-1.0234l5.1484-27.836h64.996c4.8398 0 8.75-3.9102 8.75-8.75s-3.9102-8.75-8.75-8.75zm-402.02-96.25h340.3l-4.8633 26.25h-330.59zm343.54-17.5h-346.78l-4.8633-26.25h356.5zm-335.44 61.25h324.1l-3.8398 20.766-1.0156 5.4844h-314.39zm402.68-35c0 14.027-5.4609 27.203-15.383 37.117-9.9141 9.9219-23.09 15.383-37.117 15.383-3.7812 0-7.5234-0.55859-11.242-1.3984l19.047-102.93c25.211 3.8125 44.695 25.66 44.695 51.824zm-54.266-96.25-4.8633 26.25h-362.99l-4.8633-26.25zm-340.31 175h307.89l-1.6172 8.75h-304.65zm299.79 43.75h-291.69l-3.2383-17.5h298.17z"
       id="path40" />
    <path
       d="m586.25 341.25h-61.75l3.5352-19.109c4.7891 1.0312 9.6094 1.6094 14.465 1.6094 18.699 0 36.277-7.2812 49.488-20.512 13.23-13.211 20.512-30.789 20.512-49.488 0-34.695-25.68-63.684-59.012-69.012l6.3711-34.406c0.47266-2.5469-0.21094-5.1875-1.8711-7.1836-1.6797-1.9844-4.1406-3.1484-6.7383-3.1484h-393.75c-2.5977 0-5.0586 1.1641-6.7305 3.1484-1.6641 2.0039-2.3555 4.6367-1.8828 7.1836l35.363 190.92h-61.75c-4.8398 0-8.75 3.9102-8.75 8.75s3.9102 8.75 8.75 8.75h64.996l5.1523 27.844c0.76172 4.1445 4.3828 7.1562 8.6016 7.1562h306.25c1.1367 0 2.2031-0.24609 3.2109-0.64844 0.33984-0.14062 0.61328-0.35937 0.92578-0.53516 0.62109-0.33984 1.2266-0.69922 1.7344-1.1797 0.30469-0.28125 0.53516-0.61328 0.80469-0.92578 0.41016-0.50781 0.77734-1.0078 1.0781-1.6016 0.19141-0.40234 0.32422-0.82422 0.46484-1.25 0.12109-0.35156 0.31641-0.64844 0.38672-1.0234l5.1484-27.836h64.996c4.8398 0 8.75-3.9102 8.75-8.75s-3.9102-8.75-8.75-8.75zm-402.02-96.25h340.3l-4.8633 26.25h-330.59zm343.54-17.5h-346.78l-4.8633-26.25h356.5zm-335.44 61.25h324.1l-3.8398 20.766-1.0156 5.4844h-314.39zm402.68-35c0 14.027-5.4609 27.203-15.383 37.117-9.9141 9.9219-23.09 15.383-37.117 15.383-3.7812 0-7.5234-0.55859-11.242-1.3984l19.047-102.93c25.211 3.8125 44.695 25.66 44.695 51.824zm-54.266-96.25-4.8633 26.25h-362.99l-4.8633-26.25zm-340.31 175h307.89l-1.6172 8.75h-304.65zm299.79 43.75h-291.69l-3.2383-17.5h298.17z"
       id="path42" />
    <path
       d="m586.25 341.25h-61.75l3.5352-19.109c4.7891 1.0312 9.6094 1.6094 14.465 1.6094 18.699 0 36.277-7.2812 49.488-20.512 13.23-13.211 20.512-30.789 20.512-49.488 0-34.695-25.68-63.684-59.012-69.012l6.3711-34.406c0.47266-2.5469-0.21094-5.1875-1.8711-7.1836-1.6797-1.9844-4.1406-3.1484-6.7383-3.1484h-393.75c-2.5977 0-5.0586 1.1641-6.7305 3.1484-1.6641 2.0039-2.3555 4.6367-1.8828 7.1836l35.363 190.92h-61.75c-4.8398 0-8.75 3.9102-8.75 8.75s3.9102 8.75 8.75 8.75h64.996l5.1523 27.844c0.76172 4.1445 4.3828 7.1562 8.6016 7.1562h306.25c1.1367 0 2.2031-0.24609 3.2109-0.64844 0.33984-0.14062 0.61328-0.35937 0.92578-0.53516 0.62109-0.33984 1.2266-0.69922 1.7344-1.1797 0.30469-0.28125 0.53516-0.61328 0.80469-0.92578 0.41016-0.50781 0.77734-1.0078 1.0781-1.6016 0.19141-0.40234 0.32422-0.82422 0.46484-1.25 0.12109-0.35156 0.31641-0.64844 0.38672-1.0234l5.1484-27.836h64.996c4.8398 0 8.75-3.9102 8.75-8.75s-3.9102-8.75-8.75-8.75zm-402.02-96.25h340.3l-4.8633 26.25h-330.59zm343.54-17.5h-346.78l-4.8633-26.25h356.5zm-335.44 61.25h324.1l-3.8398 20.766-1.0156 5.4844h-314.39zm402.68-35c0 14.027-5.4609 27.203-15.383 37.117-9.9141 9.9219-23.09 15.383-37.117 15.383-3.7812 0-7.5234-0.55859-11.242-1.3984l19.047-102.93c25.211 3.8125 44.695 25.66 44.695 51.824zm-54.266-96.25-4.8633 26.25h-362.99l-4.8633-26.25zm-340.31 175h307.89l-1.6172 8.75h-304.65zm299.79 43.75h-291.69l-3.2383-17.5h298.17z"
       id="path44" />
  </g>
</svg>
